<svg xmlns="http://www.w3.org/2000/svg" xmlns:svg="http://www.w3.org/2000/svg" id="svg8" width="100%" height="100%" version="1.1" viewBox="0 0 175 175"><metadata id="metadata5"/><g id="layer1"><path style="fill:#f5f5f5;fill-opacity:1;stroke:#f5f5f5;stroke-width:1.20141" id="rect944" d="m 23.439883,66.681949 47.780712,-52.0252 C 81.784605,2.0447086 98.753647,2.3057152 108.9618,13.023376 l 45.51729,53.641473 c 16.39401,15.40277 15.85689,24.76653 0.5233,39.731841 l -44.49501,50.9694 C 99.145835,170.58387 82.652615,167.95188 71.627625,156.3766 L 21.594222,106.14507 C 7.941682,93.045749 10.40749,79.401329 23.439883,66.681949 Z"/><path id="path20" d="M 127.67103,52.260574 A 22.325317,43.125763 0 0 1 113.10699,106.35196 22.325317,43.125763 0 0 1 85.095991,78.252099 22.325317,43.125763 0 0 1 99.625375,24.125948 22.325317,43.125763 0 0 1 127.65435,52.158832 l -21.275,13.072064 z" transform="rotate(19.396298)" style="fill:#2e1470;fill-opacity:1;fill-rule:evenodd;stroke-width:.184096"/><ellipse id="path20-3" cx="70.808" cy="111.899" rx="25.934" ry="43.934" transform="matrix(0.98911402,-0.14715115,0.24186683,0.97030945,0,0)" style="fill:#016492;fill-opacity:1;fill-rule:evenodd;stroke-width:.200267"/><path id="path860" d="m 95.765021,108.11945 a 3.0238097,3.0238097 0 0 1 -1.972596,3.79267 3.0238097,3.0238097 0 0 1 -3.793896,-1.97024 3.0238097,3.0238097 0 0 1 1.967895,-3.79512 3.0238097,3.0238097 0 0 1 3.796335,1.96554 l -2.881549,0.91658 z" style="fill:#2e1470;fill-opacity:1;stroke-width:.264583"/><path id="path860-0" d="m 66.164885,104.68022 a 3.0238097,3.0238097 0 0 1 -1.972596,3.79268 3.0238097,3.0238097 0 0 1 -3.793896,-1.97025 3.0238097,3.0238097 0 0 1 1.967895,-3.79511 3.0238097,3.0238097 0 0 1 3.796335,1.96554 l -2.881548,0.91657 z" style="fill:#016492;fill-opacity:1;stroke-width:.264583"/><path id="path860-5" d="m 116.67499,104.85062 a 3.0238097,3.0238097 0 0 1 -1.97259,3.79267 3.0238097,3.0238097 0 0 1 -3.7939,-1.97024 3.0238097,3.0238097 0 0 1 1.9679,-3.79512 3.0238097,3.0238097 0 0 1 3.79633,1.96555 l -2.88155,0.91657 z" style="fill:#2e1470;fill-opacity:1;stroke-width:.264583"/><path id="path860-9" d="m 92.419127,68.313373 a 3.0238097,3.0238097 0 0 1 -1.972596,3.792675 3.0238097,3.0238097 0 0 1 -3.793896,-1.970246 3.0238097,3.0238097 0 0 1 1.967895,-3.795116 3.0238097,3.0238097 0 0 1 3.796335,1.965543 l -2.881549,0.916572 z" style="fill:#2e1470;fill-opacity:1;stroke-width:.264583"/><path id="path860-02" d="m 70.23574,126.31087 a 3.0238097,3.0238097 0 0 1 -1.972597,3.79268 3.0238097,3.0238097 0 0 1 -3.793896,-1.97025 3.0238097,3.0238097 0 0 1 1.967895,-3.79512 3.0238097,3.0238097 0 0 1 3.796335,1.96555 l -2.881548,0.91657 z" style="fill:#016492;fill-opacity:1;stroke-width:.264583"/><path id="path860-3" d="m 107.92074,127.37994 a 3.0238097,3.0238097 0 0 1 -1.9726,3.79267 3.0238097,3.0238097 0 0 1 -3.7939,-1.97024 3.0238097,3.0238097 0 0 1 1.9679,-3.79512 3.0238097,3.0238097 0 0 1 3.79633,1.96555 l -2.88154,0.91657 z" style="fill:#2e1470;fill-opacity:1;stroke-width:.264583"/><path id="path860-99" d="m 84.668273,89.427661 a 3.0238097,3.0238097 0 0 1 -1.972596,3.792675 3.0238097,3.0238097 0 0 1 -3.793897,-1.970246 3.0238097,3.0238097 0 0 1 1.967895,-3.795116 3.0238097,3.0238097 0 0 1 3.796335,1.965543 l -2.881548,0.916573 z" style="fill:#2e1470;fill-opacity:1;stroke-width:.264583"/><path id="path860-7" d="m 104.98078,85.953144 a 3.0238097,3.0238097 0 0 1 -1.9726,3.792675 3.0238097,3.0238097 0 0 1 -3.793892,-1.970246 3.0238097,3.0238097 0 0 1 1.967892,-3.795117 3.0238097,3.0238097 0 0 1 3.79634,1.965543 l -2.88155,0.916573 z" style="fill:#2e1470;fill-opacity:1;stroke-width:.264583"/><path id="path970" d="m 75.36616,21.923593 c 9.964099,5.114365 12.324898,21.465361 12.565516,33.668467" style="fill:none;stroke:#2e1470;stroke-width:.965;stroke-linecap:butt;stroke-linejoin:miter;stroke-miterlimit:4;stroke-dasharray:none;stroke-opacity:1"/><path id="path974" d="M 88.198943,55.59206 C 89.810484,41.146462 90.920084,26.440451 106.64579,22.471437" style="fill:none;stroke:#2e1470;stroke-width:.965;stroke-linecap:butt;stroke-linejoin:miter;stroke-miterlimit:4;stroke-dasharray:none;stroke-opacity:1"/><path id="path976" d="m 75.326696,21.674955 a 0.93544334,0.8018086 0 0 1 -0.610241,1.005685 0.93544334,0.8018086 0 0 1 -1.173676,-0.522441 0.93544334,0.8018086 0 0 1 0.608786,-1.006332 0.93544334,0.8018086 0 0 1 1.174431,0.521193 l -0.891433,0.243043 z" style="fill:#2e1470;fill-opacity:1;stroke:#2e1470;stroke-width:.564999;stroke-miterlimit:4;stroke-dasharray:none;stroke-opacity:1"/><path id="path976-5" d="m 108.31077,22.476766 a 0.93544334,0.8018086 0 0 1 -0.61024,1.005685 0.93544334,0.8018086 0 0 1 -1.17367,-0.52244 0.93544334,0.8018086 0 0 1 0.60878,-1.006333 0.93544334,0.8018086 0 0 1 1.17443,0.521194 l -0.89143,0.243043 z" style="fill:#2e1470;fill-opacity:1;stroke:#2e1470;stroke-width:.564999;stroke-miterlimit:4;stroke-dasharray:none;stroke-opacity:1"/></g></svg>